<svg width="171" height="47" viewBox="0 0 171 47" fill="none" xmlns="http://www.w3.org/2000/svg">
<path d="M35.0433 9.32631e-08H6.95675C5.11181 -0.000301811 3.34233 0.732386 2.03765 2.03685C0.732977 3.34131 6.85767e-08 5.11067 9.32784e-08 6.95561V35.0433C-0.000301868 36.8884 0.732542 38.658 2.03725 39.9627C3.34196 41.2675 5.11161 42.0003 6.95675 42H8.07219V18.3753L10.8278 16.1433L13.5846 18.3753V42H18.2433V12.9938L21 10.7629L23.7567 12.9938V42H28.4154V18.3753L31.1722 16.1433L33.9278 18.3753V42H35.0433C36.8884 42.0003 38.658 41.2675 39.9627 39.9627C41.2675 38.658 42.0003 36.8884 42 35.0433V6.95561C42 5.11067 41.267 3.34131 39.9623 2.03685C38.6577 0.732386 36.8882 -0.000301811 35.0433 9.32631e-08Z" fill="#1843DF"/>
<path d="M58.168 35V10.16H61.84V35H58.168ZM67.7924 35V16.208H77.9804C81.6764 16.208 83.5244 18.044 83.5244 21.716V35H79.9964V21.356C79.9964 19.964 79.3004 19.268 77.9084 19.268H71.2844V35H67.7924ZM89.1004 35V10.16H100.836C104.868 10.16 106.884 12.176 106.884 16.208V18.368C106.884 19.184 106.644 19.88 106.164 20.456L104.904 21.968L106.416 23.228C107.208 23.876 107.604 24.836 107.604 26.108V28.952C107.604 32.984 105.588 35 101.556 35H89.1004ZM94.2844 30.32H101.34C102.06 30.32 102.42 29.96 102.42 29.24V25.64C102.42 24.92 102.06 24.56 101.34 24.56H94.2844V30.32ZM94.2844 19.88H100.62C101.34 19.88 101.7 19.52 101.7 18.8V15.92C101.7 15.2 101.34 14.84 100.62 14.84H94.2844V19.88ZM112.081 35V18.44C112.969 16.808 114.673 15.992 117.193 15.992H121.081L123.241 17.612V20.312H118.381C117.733 20.312 117.289 20.468 117.049 20.78V35H112.081ZM126.708 12.896V8.072H131.82V12.896H126.708ZM126.78 35V15.992H131.748V35H126.78ZM136.652 29.168V21.824C136.652 17.936 138.596 15.992 142.484 15.992H147.164C151.052 15.992 152.996 17.936 152.996 21.824V27.368H141.62V29.528C141.62 30.296 142.004 30.68 142.772 30.68H152.276V33.38L150.116 35H142.484C138.596 35 136.652 33.056 136.652 29.168ZM141.62 23.48H148.028V21.464C148.028 20.696 147.644 20.312 146.876 20.312H142.772C142.004 20.312 141.62 20.696 141.62 21.464V23.48ZM157.893 35V14.192C157.893 10.304 159.837 8.36 163.725 8.36H167.253L169.413 9.98V12.68H164.013C163.245 12.68 162.861 13.064 162.861 13.832V15.992H169.053V20.312H162.861V35H157.893Z" fill="black"/>
</svg>
